<?xml version="1.0" encoding="UTF-8"?>
<svg width="171px" height="174px" viewBox="0 0 171 174" version="1.1" xmlns="http://www.w3.org/2000/svg" xmlns:xlink="http://www.w3.org/1999/xlink">
    <!-- Generator: Sketch 48.2 (47327) - http://www.bohemiancoding.com/sketch -->
    <title>Page 1</title>
    <desc>Created with Sketch.</desc>
    <defs>
        <polygon id="path-1" points="0.6665 0.00330102324 25.989 0.00330102324 25.989 8.2236 0.6665 8.2236"></polygon>
        <polygon id="path-3" points="0 0.00330102324 25.3247 0.00330102324 25.3247 8.2236 0 8.2236"></polygon>
    </defs>
    <g id="Desktop-HD" stroke="none" stroke-width="1" fill="none" fill-rule="evenodd" transform="translate(-634.000000, -433.000000)">
        <g id="Page-1" transform="translate(634.000000, 433.000000)">
            <g id="Group-3" transform="translate(145.000000, 18.509000)">
                <mask id="mask-2" fill="white">
                    <use xlink:href="#path-1"></use>
                </mask>
                <g id="Clip-2"></g>
                <path d="M23.8125,8.2236 L25.9895,4.4576 C25.5855,4.2256 15.8475,-1.3144 0.6665,0.2966 L1.1215,4.6246 C14.8425,3.1956 23.7225,8.1716 23.8125,8.2236" id="Fill-1" fill="#FFFFFF" mask="url(#mask-2)"></path>
            </g>
            <path d="M93.2646,79.052 C94.6266,53.559 110.9656,38.971 111.1266,38.831 L108.2656,35.557 C107.5326,36.199 90.3786,51.518 88.9246,78.827 L93.2646,79.052 Z" id="Fill-4" fill="#FFFFFF"></path>
            <g id="Group-8" transform="translate(0.000000, 18.509000)">
                <mask id="mask-4" fill="white">
                    <use xlink:href="#path-3"></use>
                </mask>
                <g id="Clip-7"></g>
                <path d="M2.1797,8.2236 L-0.0003,4.4576 C0.4077,4.2256 10.1457,-1.3144 25.3247,0.2966 L24.8697,4.6246 C11.1487,3.1956 2.2697,8.1716 2.1797,8.2236" id="Fill-6" fill="#FFFFFF" mask="url(#mask-4)"></path>
            </g>
            <path d="M77.7256,79.052 C76.3656,53.559 60.0256,38.971 59.8626,38.831 L62.7276,35.557 C63.4596,36.199 80.6096,51.518 82.0666,78.827 L77.7256,79.052 Z" id="Fill-9" fill="#FFFFFF"></path>
            <path d="M140.4384,77.7121 C138.6824,75.9091 134.4244,72.1011 129.2504,71.3651 C129.6384,69.8381 130.5234,67.1931 132.4384,63.8201 C134.1324,63.4511 138.8144,62.4561 141.0934,62.1701 C142.9944,61.9171 146.5344,63.0131 148.1944,63.5811 C148.1854,66.0411 147.5004,73.0171 140.4384,77.7121 M127.9684,88.2181 C128.0004,87.4501 127.9154,86.5581 127.5804,85.6081 C126.7434,83.1941 124.6164,81.1361 121.2924,79.4481 C123.2394,76.7201 126.7824,74.7121 127.8384,74.1551 C132.6674,74.3261 136.9484,78.2681 138.4784,79.8561 C137.6084,81.5751 134.8594,85.7951 127.9684,88.2181 M124.6944,89.5991 C120.1864,96.8581 109.5244,99.2971 105.8874,99.9321 C105.8414,99.7551 105.8004,99.5921 105.7534,99.4171 C104.9734,95.7891 103.8684,91.3741 102.2884,86.2301 C102.0814,85.4631 101.9314,84.9151 101.8294,84.5401 C103.2324,82.8081 108.4594,77.5201 117.4854,80.9341 C121.5104,82.4481 124.0524,84.3721 124.8244,86.5031 C125.4294,88.1671 124.7694,89.4651 124.6944,89.5991 M66.3034,110.9421 C66.3104,110.8701 66.6074,106.8161 68.1504,99.7351 C69.7864,93.4311 70.7924,89.6221 71.3874,87.4061 C72.3294,84.3071 73.4314,80.9641 74.7454,77.3771 L81.1254,81.9231 L81.7114,79.9901 C82.0444,78.8881 84.6964,70.1231 85.4184,67.6191 C86.1414,70.1231 88.7934,78.8881 89.1284,79.9901 L89.7114,81.9231 L89.8384,81.8341 L89.8654,81.9231 L96.1254,77.4651 C103.5824,97.8561 104.5214,110.8121 104.5484,111.0671 C105.3844,116.5511 106.3704,131.7851 100.9604,136.3091 C97.6474,139.0721 91.7144,140.9401 85.4184,141.2151 C79.1264,140.9401 73.1904,139.0721 69.8764,136.3091 C64.4684,131.7851 65.4544,116.5511 66.3034,110.9421 M65.1034,99.9321 C61.4684,99.2971 50.8024,96.8581 46.2954,89.5991 C46.2254,89.4651 45.5614,88.1671 46.1674,86.5031 C46.9394,84.3721 49.4804,82.4481 53.5054,80.9341 C62.5334,77.5201 67.7614,82.8081 69.1644,84.5401 C69.0624,84.9091 68.9154,85.4471 68.7124,86.2001 C67.1264,91.3661 66.0174,95.7951 65.2324,99.4341 C65.1904,99.6031 65.1484,99.7621 65.1034,99.9321 M43.4084,85.6081 C43.0764,86.5581 42.9934,87.4501 43.0254,88.2181 C36.1334,85.7951 33.3844,81.5751 32.5134,79.8561 C34.0424,78.2681 38.3254,74.3281 43.1544,74.1551 C44.2094,74.7141 47.7564,76.7181 49.7004,79.4461 C46.3734,81.1341 44.2484,83.1941 43.4084,85.6081 M22.7954,63.5811 C24.4564,63.0161 27.9974,61.9171 29.8984,62.1701 C32.1764,62.4561 36.8574,63.4511 38.5524,63.8201 C40.4664,67.1931 41.3544,69.8381 41.7434,71.3651 C36.5674,72.1011 32.3064,75.9091 30.5534,77.7121 C23.4924,73.0171 22.8034,66.0411 22.7954,63.5811 M30.9124,14.8241 C36.3744,6.9071 43.6894,2.8981 52.6434,2.8981 C55.1084,2.8981 57.3194,3.2251 59.1654,3.6231 C52.3804,5.5391 40.8714,10.2261 33.4434,21.0511 C26.6034,31.0231 24.8764,43.8961 28.2734,59.3101 C26.1534,59.5201 23.6684,60.2491 22.1744,60.7351 C18.1444,50.9361 16.7344,35.3321 30.9124,14.8241 M47.4244,27.7991 C47.0774,29.5711 46.4924,36.1411 54.5504,42.4631 C52.3314,52.9071 41.6064,59.6581 39.2734,61.0111 C37.8344,60.7001 33.8904,59.8581 31.2744,59.4441 C27.8354,44.5141 29.3504,32.1531 35.8184,22.7121 C41.9194,13.8051 51.2384,9.3241 57.7094,7.1541 C45.7174,17.0231 46.9274,25.7621 47.4244,27.7991 M56.2224,40.0931 C49.9014,35.0771 49.9904,30.1901 50.2174,28.6571 C60.0214,22.3891 65.0414,19.0781 67.5034,17.4131 C67.4924,30.8041 58.9474,38.1061 56.2224,40.0931 M116.3404,42.0291 C122.3904,37.0351 123.1844,31.9701 123.0784,29.2891 L123.4444,28.2321 C123.6004,27.7781 126.6634,18.1701 113.2834,7.1541 C119.7534,9.3241 129.0714,13.8051 135.1704,22.7121 C141.6414,32.1511 143.1604,44.5141 139.7164,59.4441 C137.1024,59.8581 133.1574,60.7001 131.7174,61.0111 C129.3524,59.6381 118.3524,52.7251 116.3404,42.0291 M103.4894,17.4131 C105.8874,19.0351 110.7174,22.2241 120.0384,28.1871 C120.1434,28.5721 121.4534,34.0911 114.4394,39.8461 C111.4134,37.5441 103.5014,30.2981 103.4894,17.4131 M140.0794,14.8241 C154.2574,35.3321 152.8464,50.9361 148.8184,60.7351 C147.3264,60.2491 144.8364,59.5201 142.7164,59.3101 C146.1184,43.8961 144.3894,31.0231 137.5494,21.0511 C130.1214,10.2261 118.6104,5.5391 111.8284,3.6231 C113.6724,3.2251 115.8824,2.8981 118.3484,2.8981 C127.3034,2.8981 134.6184,6.9071 140.0794,14.8241 M142.4724,13.1681 C134.9474,2.2861 125.1984,0.0001 118.3484,0.0001 C111.1464,0.0001 105.7504,2.4281 105.5244,2.5291 L103.0664,3.6571 L105.3674,5.0841 C119.3844,13.7451 121.0554,21.7501 120.9674,25.3401 C105.9324,15.7141 103.0404,13.5841 103.0104,13.5591 L100.9064,11.9911 L100.7024,14.6051 C99.3494,31.8461 110.7844,40.8631 113.5134,42.7581 C115.6894,53.8231 125.9154,60.8921 129.5394,63.0911 C127.2784,67.2541 126.4634,70.3491 126.2034,71.7411 C124.6184,72.6011 120.7244,74.9541 118.6004,78.2541 C118.5684,78.2401 118.5414,78.2271 118.5084,78.2161 C109.4864,74.8201 103.4994,78.8401 100.7544,81.4851 C100.0164,79.2851 99.2114,76.9961 98.3064,74.5911 L97.6374,72.8341 L97.5194,72.9191 L97.4884,72.8341 L91.4484,77.1371 C90.0554,72.5131 88.3594,66.8771 88.2084,66.2871 L88.0634,66.3241 C88.0614,66.3151 88.0554,66.2951 88.0534,66.2871 L85.4184,66.9591 L82.7844,66.2871 C82.6314,66.8811 80.9174,72.5871 79.5184,77.2261 L73.3534,72.8341 L72.6864,74.5911 C71.7814,76.9961 70.9764,79.2851 70.2354,81.4851 C67.4944,78.8401 61.5054,74.8201 52.4844,78.2161 C52.4514,78.2271 52.4214,78.2421 52.3884,78.2541 C50.2674,74.9571 46.3754,72.6021 44.7914,71.7411 C44.5284,70.3511 43.7124,67.2551 41.4534,63.0891 C45.0774,60.8921 55.3014,53.8231 57.4784,42.7581 C60.2074,40.8631 71.6424,31.8461 70.2924,14.6051 L70.0864,11.9911 L67.9814,13.5591 C67.9524,13.5841 65.0614,15.7141 50.0234,25.3401 C49.9414,21.7501 51.6074,13.7451 65.6274,5.0841 L67.9224,3.6571 L65.4664,2.5291 C65.2404,2.4281 59.8454,0.0001 52.6434,0.0001 C45.7934,0.0001 36.0444,2.2861 28.5204,13.1681 C13.1534,35.4191 15.2974,52.3751 19.9154,62.7881 C19.8154,64.8121 19.8824,74.5221 29.6314,80.5361 C30.4414,82.3761 33.9244,88.8111 44.1344,91.5991 C49.4264,99.5251 60.5564,102.0961 64.5514,102.7831 C63.6354,107.6701 63.4404,110.4291 63.4304,110.6281 C63.2924,111.4961 60.2584,132.0431 68.0204,138.5281 C71.8464,141.7251 78.2644,143.7941 85.2464,144.1101 L85.2464,144.1341 C85.2984,144.1321 85.3464,144.1261 85.4004,144.1251 L85.4004,144.1341 C85.4324,144.1321 85.4634,144.1281 85.4964,144.1281 C85.5294,144.1281 85.5594,144.1321 85.5924,144.1341 L85.5924,144.1201 C92.6314,143.8291 99.1164,141.7491 102.9704,138.5281 C110.7334,132.0431 107.7004,111.4961 107.5614,110.6281 C107.5514,110.4291 107.3554,107.6701 106.4404,102.7831 C110.4314,102.0981 121.5664,99.5251 126.8584,91.5991 C137.0654,88.8111 140.5544,82.3761 141.3604,80.5361 C151.1194,74.5161 151.1764,64.7981 151.0764,62.7841 C155.6954,52.3711 157.8364,35.4181 142.4724,13.1681" id="Fill-11" fill="#F0F0F0"></path>
            <polygon id="Fill-13" fill="#F0F0F0" points="32.8711 130.5871 35.6471 132.8581 29.6851 140.1501 32.1111 142.1321 38.0721 134.8391 40.8491 137.1091 26.9391 154.1271 24.1611 151.8571 30.1201 144.5661 27.6971 142.5841 21.7371 149.8751 18.9581 147.6071"></polygon>
            <path d="M45.8613,145.0471 C46.3483,144.1871 46.1403,143.5001 45.2383,142.9851 L45.2163,142.9731 C44.3233,142.4641 43.6293,142.6371 43.1383,143.4961 L36.4793,155.1811 C35.9893,156.0401 36.1953,156.7271 37.1013,157.2411 C38.0093,157.7611 38.7123,157.5911 39.2023,156.7321 L45.8613,145.0471 Z M42.3163,158.5071 C40.7933,161.1791 38.5353,161.6671 35.5453,159.9731 C32.5613,158.2751 31.8373,156.0821 33.3633,153.4051 L40.0213,141.7201 C41.5463,139.0471 43.7983,138.5621 46.7783,140.2601 C49.7663,141.9621 50.4993,144.1501 48.9763,146.8221 L42.3163,158.5071 Z" id="Fill-15" fill="#F0F0F0"></path>
            <polygon id="Fill-17" fill="#F0F0F0" points="54.7744 160.7121 63.7204 147.8991 67.1024 149.0961 59.7884 169.8231 56.5474 168.6781 60.6524 157.0471 53.6554 167.6571 51.3604 166.8481 52.4904 154.1661 48.3844 165.7981 45.1104 164.6421 52.4244 143.9141 55.8064 145.1081"></polygon>
            <path d="M72.8164,164.3811 L73.0134,155.1271 L70.1184,163.9191 L72.8164,164.3811 Z M76.3904,164.9931 L76.2224,172.8741 L72.6474,172.2621 L72.7514,167.5441 L69.1394,166.9271 L67.6534,171.4041 L64.0904,170.7951 L66.5524,163.3341 L71.4524,149.7541 L76.3004,150.5851 L76.3904,164.9931 Z" id="Fill-19" fill="#F0F0F0"></path>
            <path d="M84.3994,154.4426 L84.2234,160.7386 L85.0474,160.7626 C85.5454,160.7786 85.8884,160.7566 86.0774,160.7046 C86.7334,160.4926 87.0724,160.0336 87.0924,159.3246 L87.1854,156.0286 C87.2124,155.0256 86.7064,154.5076 85.6664,154.4796 L84.3994,154.4426 Z M80.9004,151.2266 L86.1214,151.3716 C89.3054,151.4596 90.8554,153.0466 90.7704,156.1296 L90.6774,159.4236 C90.6244,161.3596 89.6484,162.6076 87.7464,163.1716 L91.4914,173.5086 L87.5614,173.4006 L84.6004,163.6426 L84.1434,163.6946 L83.8764,173.2966 L80.2914,173.1986 L80.9004,151.2266 Z" id="Fill-21" fill="#F0F0F0"></path>
            <path d="M96.7246,154.0979 L98.5416,169.7239 L100.1026,169.5409 C101.1366,169.4209 101.5946,168.8729 101.4816,167.8899 L100.0046,155.2359 C99.8896,154.2369 99.3176,153.7969 98.2836,153.9149 L96.7246,154.0979 Z M92.7996,151.4159 L98.2876,150.7779 C101.4536,150.4099 103.2126,151.7569 103.5706,154.8219 L105.0416,167.4749 C105.3976,170.5229 103.9176,172.2419 100.6036,172.6369 L95.3406,173.2479 L92.7996,151.4159 Z" id="Fill-23" fill="#F0F0F0"></path>
            <path d="M117.959,159.2404 L119.988,165.1914 L121.476,164.6844 C122.459,164.3474 122.791,163.7124 122.472,162.7764 L121.4,159.6334 C121.177,158.9694 120.718,158.6374 120.031,158.6384 C119.833,158.6364 119.498,158.7144 119.025,158.8764 L117.959,159.2404 Z M114.91,150.3014 L116.944,156.2644 L118.013,155.9004 C118.482,155.7394 118.798,155.6014 118.954,155.4854 C119.497,155.0584 119.653,154.5114 119.426,153.8374 L118.36,150.7194 C118.037,149.7664 117.382,149.4604 116.399,149.7934 L114.91,150.3014 Z M110.51,148.5094 L115.741,146.7254 C118.756,145.6954 120.762,146.6424 121.755,149.5624 L122.82,152.6804 C123.286,154.0484 122.995,155.2284 121.95,156.2194 C123.384,156.3634 124.332,157.1154 124.795,158.4744 L125.867,161.6184 C126.858,164.5214 125.774,166.5154 122.618,167.6014 L117.602,169.3104 L110.51,148.5094 Z" id="Fill-25" fill="#F0F0F0"></path>
            <polygon id="Fill-27" fill="#F0F0F0" points="131.6679 164.09 121.7669 144.465 124.9679 142.85 133.4589 159.677 138.5639 157.102 139.9739 159.898"></polygon>
            <polygon id="Fill-29" fill="#F0F0F0" points="130.8828 139.7277 138.4988 134.3817 140.2908 136.9337 135.6118 140.2177 139.2298 145.3737 143.2548 142.5487 145.0598 145.1237 141.0348 147.9487 144.6468 153.0947 149.3248 149.8107 151.1238 152.3737 143.5068 157.7177"></polygon>
            <path d="M159.1513,139.007 C161.3293,141.179 161.2073,143.486 158.7843,145.929 C156.3633,148.359 154.0583,148.484 151.8763,146.304 L139.3273,133.793 L141.8593,131.252 L154.4063,143.764 C155.1083,144.463 155.8253,144.443 156.5603,143.708 C157.2993,142.966 157.3183,142.246 156.6193,141.549 L144.0713,129.035 L146.6023,126.496 L159.1513,139.007 Z" id="Fill-31" fill="#F0F0F0"></path>
            <path d="M86.0879,112.2697 L82.9409,116.8367 L82.1159,111.3517 L76.5809,111.7437 L80.3589,107.6717 L76.6029,103.5907 L82.1409,104.0057 L82.9879,98.5247 L86.1089,103.1097 L90.9269,100.3587 L89.2879,105.6647 L94.4449,107.7107 L89.2779,109.7357 L90.8949,115.0467 L86.0879,112.2697 Z M99.8679,107.7217 L91.7339,104.4937 L94.3179,96.1267 L86.7199,100.4687 L81.7899,93.2287 L80.4529,101.8817 L71.7229,101.2317 L77.6489,107.6687 L71.6899,114.0837 L80.4209,113.4677 L81.7199,122.1177 L86.6839,114.9157 L94.2659,119.2927 L91.7199,110.9167 L99.8679,107.7217 Z" id="Fill-33" fill="#F0F0F0"></path>
        </g>
    </g>
</svg>